<?xml version="1.0" standalone="yes"?>

<svg version="1.1" viewBox="0.0 0.0 400.0 200.0" fill="none" stroke="none" stroke-linecap="square" stroke-miterlimit="10" xmlns="http://www.w3.org/2000/svg" xmlns:xlink="http://www.w3.org/1999/xlink"><clipPath id="p.0"><path d="m0 0l400.0 0l0 200.0l-400.0 0l0 -200.0z" clip-rule="nonzero"></path></clipPath><g clip-path="url(#p.0)"><path fill="#000000" fill-opacity="0.0" d="m0 0l400.0 0l0 200.0l-400.0 0z" fill-rule="nonzero"></path><path fill="#000000" fill-opacity="0.0" d="m116.55316 113.5036l-37.354332 80.12598" fill-rule="nonzero"></path><path stroke="#434343" stroke-width="4.0" stroke-linejoin="round" stroke-linecap="butt" stroke-dasharray="16.0,12.0,4.0,12.0" d="m116.55316 113.5036l-37.354332 80.12598" fill-rule="nonzero"></path><path fill="#000000" fill-opacity="0.0" d="m136.75987 113.5036l-37.354332 80.12598" fill-rule="nonzero"></path><path stroke="#434343" stroke-width="4.0" stroke-linejoin="round" stroke-linecap="butt" stroke-dasharray="16.0,12.0,4.0,12.0" d="m136.75987 113.5036l-37.354332 80.12598" fill-rule="nonzero"></path><path fill="#000000" fill-opacity="0.0" d="m163.70215 113.5036l-37.354324 80.12598" fill-rule="nonzero"></path><path stroke="#434343" stroke-width="4.0" stroke-linejoin="round" stroke-linecap="butt" stroke-dasharray="16.0,12.0,4.0,12.0" d="m163.70215 113.5036l-37.354324 80.12598" fill-rule="nonzero"></path><path fill="#000000" fill-opacity="0.0" d="m190.64444 113.5036l-37.35434 80.12598" fill-rule="nonzero"></path><path stroke="#434343" stroke-width="4.0" stroke-linejoin="round" stroke-linecap="butt" stroke-dasharray="16.0,12.0,4.0,12.0" d="m190.64444 113.5036l-37.35434 80.12598" fill-rule="nonzero"></path><path fill="#000000" fill-opacity="0.0" d="m225.28136 95.660965l-45.007874 97.95276" fill-rule="nonzero"></path><path stroke="#434343" stroke-width="4.0" stroke-linejoin="round" stroke-linecap="butt" stroke-dasharray="16.0,12.0,4.0,12.0" d="m225.28136 95.660965l-45.007874 97.95276" fill-rule="nonzero"></path><path fill="#000000" fill-opacity="0.0" d="m237.79343 113.5036l-37.35434 80.12598" fill-rule="nonzero"></path><path stroke="#434343" stroke-width="4.0" stroke-linejoin="round" stroke-linecap="butt" stroke-dasharray="16.0,12.0,4.0,12.0" d="m237.79343 113.5036l-37.35434 80.12598" fill-rule="nonzero"></path><path fill="#000000" fill-opacity="0.0" d="m264.73572 113.5036l-37.35434 80.12598" fill-rule="nonzero"></path><path stroke="#434343" stroke-width="4.0" stroke-linejoin="round" stroke-linecap="butt" stroke-dasharray="16.0,12.0,4.0,12.0" d="m264.73572 113.5036l-37.35434 80.12598" fill-rule="nonzero"></path><path fill="#000000" fill-opacity="0.0" d="m291.67798 113.5036l-37.354324 80.12598" fill-rule="nonzero"></path><path stroke="#434343" stroke-width="4.0" stroke-linejoin="round" stroke-linecap="butt" stroke-dasharray="16.0,12.0,4.0,12.0" d="m291.67798 113.5036l-37.354324 80.12598" fill-rule="nonzero"></path><path fill="#000000" fill-opacity="0.0" d="m305.1491 120.20283l-37.35431 80.125984" fill-rule="nonzero"></path><path stroke="#434343" stroke-width="4.0" stroke-linejoin="round" stroke-linecap="butt" stroke-dasharray="16.0,12.0,4.0,12.0" d="m305.1491 120.20283l-37.35431 80.125984" fill-rule="nonzero"></path><path fill="#000000" fill-opacity="0.0" d="m325.35583 113.5036l-37.35434 80.12598" fill-rule="nonzero"></path><path stroke="#434343" stroke-width="4.0" stroke-linejoin="round" stroke-linecap="butt" stroke-dasharray="16.0,12.0,4.0,12.0" d="m325.35583 113.5036l-37.35434 80.12598" fill-rule="nonzero"></path><path fill="#b7b7b7" d="m57.17975 98.75105l0 0c-1.0835991 -22.088348 34.20437 -41.75327 78.81789 -43.92283l0 0c44.61351 -2.1695595 81.65834 13.977814 82.74194 36.066162l0 0c1.0835876 22.088348 -34.204376 41.753273 -78.81789 43.92283l0 0c-44.613518 2.1695557 -81.65834 -13.977814 -82.74194 -36.066162z" fill-rule="nonzero"></path><path stroke="#b7b7b7" stroke-width="2.0" stroke-linejoin="round" stroke-linecap="butt" d="m57.17975 98.75105l0 0c-1.0835991 -22.088348 34.20437 -41.75327 78.81789 -43.92283l0 0c44.61351 -2.1695595 81.65834 13.977814 82.74194 36.066162l0 0c1.0835876 22.088348 -34.204376 41.753273 -78.81789 43.92283l0 0c-44.613518 2.1695557 -81.65834 -13.977814 -82.74194 -36.066162z" fill-rule="nonzero"></path><path fill="#b7b7b7" d="m191.92053 92.19859l0 0c-1.0836029 -22.088348 34.204376 -41.753265 78.81787 -43.922825l0 0c44.613525 -2.1695595 81.658356 13.97781 82.74194 36.06616l0 0c1.0836182 22.088348 -34.204346 41.753273 -78.81787 43.92283l0 0c-44.61351 2.1695557 -81.65834 -13.977806 -82.74194 -36.066162z" fill-rule="nonzero"></path><path stroke="#b7b7b7" stroke-width="2.0" stroke-linejoin="round" stroke-linecap="butt" d="m191.92053 92.19859l0 0c-1.0836029 -22.088348 34.204376 -41.753265 78.81787 -43.922825l0 0c44.613525 -2.1695595 81.658356 13.97781 82.74194 36.06616l0 0c1.0836182 22.088348 -34.204346 41.753273 -78.81787 43.92283l0 0c-44.61351 2.1695557 -81.65834 -13.977806 -82.74194 -36.066162z" fill-rule="nonzero"></path><path fill="#b7b7b7" d="m119.09258 73.54296l0 0c-0.9197769 -18.749054 25.694237 -35.278667 59.44407 -36.919926l0 0c33.749832 -1.6412582 61.855103 12.227356 62.774887 30.976414l0 0c0.91978455 18.749054 -25.69423 35.27867 -59.44406 36.91993l0 0c-33.749832 1.6412506 -61.85511 -12.227356 -62.774895 -30.976418z" fill-rule="nonzero"></path><path stroke="#b7b7b7" stroke-width="2.0" stroke-linejoin="round" stroke-linecap="butt" d="m119.09258 73.54296l0 0c-0.9197769 -18.749054 25.694237 -35.278667 59.44407 -36.919926l0 0c33.749832 -1.6412582 61.855103 12.227356 62.774887 30.976414l0 0c0.91978455 18.749054 -25.69423 35.27867 -59.44406 36.91993l0 0c-33.749832 1.6412506 -61.85511 -12.227356 -62.774895 -30.976418z" fill-rule="nonzero"></path><path fill="#b7b7b7" d="m168.95418 42.871765l0 0c-0.9197693 -18.749058 25.694244 -35.27867 59.444077 -36.91993l0 0c33.749817 -1.6412573 61.855103 12.227354 62.77487 30.97641l0 0c0.9197998 18.749058 -25.694214 35.27867 -59.444046 36.91993l0 0c-33.749847 1.6412582 -61.855118 -12.227356 -62.774902 -30.97641z" fill-rule="nonzero"></path><path stroke="#b7b7b7" stroke-width="2.0" stroke-linejoin="round" stroke-linecap="butt" d="m168.95418 42.871765l0 0c-0.9197693 -18.749058 25.694244 -35.27867 59.444077 -36.91993l0 0c33.749817 -1.6412573 61.855103 12.227354 62.77487 30.97641l0 0c0.9197998 18.749058 -25.694214 35.27867 -59.444046 36.91993l0 0c-33.749847 1.6412582 -61.855118 -12.227356 -62.774902 -30.97641z" fill-rule="nonzero"></path></g></svg>

