<?xml version="1.0" standalone="yes"?>

<svg version="1.1" viewBox="0.0 0.0 400.0 200.0" fill="none" stroke="none" stroke-linecap="square" stroke-miterlimit="10" xmlns="http://www.w3.org/2000/svg" xmlns:xlink="http://www.w3.org/1999/xlink"><clipPath id="p.0"><path d="m0 0l400.0 0l0 200.0l-400.0 0l0 -200.0z" clip-rule="nonzero"></path></clipPath><g clip-path="url(#p.0)"><path fill="#000000" fill-opacity="0.0" d="m0 0l400.0 0l0 200.0l-400.0 0z" fill-rule="nonzero"></path><path fill="#ffff00" d="m62.44882 68.45407l0 0c0 -36.4421 31.008686 -65.98425 69.25984 -65.98425l0 0c18.36885 0 35.985367 6.951892 48.974106 19.32634c12.988739 12.374449 20.285736 29.1578 20.285736 46.657913l0 0c0 36.442093 -31.008682 65.98425 -69.25984 65.98425l0 0c-38.25116 0 -69.25984 -29.54216 -69.25984 -65.98425z" fill-rule="nonzero"></path><path stroke="#bf9000" stroke-width="2.0" stroke-linejoin="round" stroke-linecap="butt" d="m62.44882 68.45407l0 0c0 -36.4421 31.008686 -65.98425 69.25984 -65.98425l0 0c18.36885 0 35.985367 6.951892 48.974106 19.32634c12.988739 12.374449 20.285736 29.1578 20.285736 46.657913l0 0c0 36.442093 -31.008682 65.98425 -69.25984 65.98425l0 0c-38.25116 0 -69.25984 -29.54216 -69.25984 -65.98425z" fill-rule="nonzero"></path><path fill="#d9d9d9" d="m15.0210085 147.55742l0 0c-1.3494816 -27.59916 41.60497 -52.126694 95.941444 -54.78379l0 0c54.33648 -2.6571045 99.478874 17.562424 100.82836 45.161568l0 0c1.349472 27.599152 -41.60498 52.126694 -95.94146 54.783783l0 0c-54.336475 2.6571045 -99.47887 -17.562424 -100.82835 -45.16156z" fill-rule="nonzero"></path><path stroke="#d9d9d9" stroke-width="2.0" stroke-linejoin="round" stroke-linecap="butt" d="m15.0210085 147.55742l0 0c-1.3494816 -27.59916 41.60497 -52.126694 95.941444 -54.78379l0 0c54.33648 -2.6571045 99.478874 17.562424 100.82836 45.161568l0 0c1.349472 27.599152 -41.60498 52.126694 -95.94146 54.783783l0 0c-54.336475 2.6571045 -99.47887 -17.562424 -100.82835 -45.16156z" fill-rule="nonzero"></path><path fill="#d9d9d9" d="m179.12689 139.5325l0 0c-1.3494873 -27.59916 41.604965 -52.126694 95.94144 -54.78379l0 0c54.336487 -2.6571045 99.47888 17.562424 100.82837 45.161568l0 0c1.3494873 27.599152 -41.60498 52.126694 -95.94147 54.783783l0 0c-54.33647 2.6571045 -99.47885 -17.562424 -100.82834 -45.16156z" fill-rule="nonzero"></path><path stroke="#d9d9d9" stroke-width="2.0" stroke-linejoin="round" stroke-linecap="butt" d="m179.12689 139.5325l0 0c-1.3494873 -27.59916 41.604965 -52.126694 95.94144 -54.78379l0 0c54.336487 -2.6571045 99.47888 17.562424 100.82837 45.161568l0 0c1.3494873 27.599152 -41.60498 52.126694 -95.94147 54.783783l0 0c-54.33647 2.6571045 -99.47885 -17.562424 -100.82834 -45.16156z" fill-rule="nonzero"></path><path fill="#d9d9d9" d="m90.39719 116.13607l0 0c-1.1454697 -23.426743 31.248291 -44.047356 72.353485 -46.057434l0 0c41.105194 -2.0100784 75.356125 15.351555 76.50159 38.778297l0 0c1.1454773 23.426743 -31.248291 44.047348 -72.353485 46.057434l0 0c-41.105194 2.0100708 -75.35612 -15.3515625 -76.50159 -38.778297z" fill-rule="nonzero"></path><path stroke="#d9d9d9" stroke-width="2.0" stroke-linejoin="round" stroke-linecap="butt" d="m90.39719 116.13607l0 0c-1.1454697 -23.426743 31.248291 -44.047356 72.353485 -46.057434l0 0c41.105194 -2.0100784 75.356125 15.351555 76.50159 38.778297l0 0c1.1454773 23.426743 -31.248291 44.047348 -72.353485 46.057434l0 0c-41.105194 2.0100708 -75.35612 -15.3515625 -76.50159 -38.778297z" fill-rule="nonzero"></path><path fill="#d9d9d9" d="m151.08759 77.87447l0 0c-1.145462 -23.426743 31.248291 -44.04736 72.353485 -46.057438l0 0c41.105194 -2.0100784 75.35611 15.351555 76.50159 38.778294l0 0c1.1454773 23.426743 -31.248291 44.047356 -72.353485 46.057434l0 0c-41.105194 2.0100784 -75.356125 -15.351555 -76.50159 -38.77829z" fill-rule="nonzero"></path><path stroke="#d9d9d9" stroke-width="2.0" stroke-linejoin="round" stroke-linecap="butt" d="m151.08759 77.87447l0 0c-1.145462 -23.426743 31.248291 -44.04736 72.353485 -46.057438l0 0c41.105194 -2.0100784 75.35611 15.351555 76.50159 38.778294l0 0c1.1454773 23.426743 -31.248291 44.047356 -72.353485 46.057434l0 0c-41.105194 2.0100784 -75.356125 -15.351555 -76.50159 -38.77829z" fill-rule="nonzero"></path></g></svg>

