<?xml version="1.0" standalone="yes"?>

<svg version="1.1" viewBox="0.0 0.0 400.0 200.0" fill="none" stroke="none" stroke-linecap="square" stroke-miterlimit="10" xmlns="http://www.w3.org/2000/svg" xmlns:xlink="http://www.w3.org/1999/xlink"><clipPath id="p.0"><path d="m0 0l400.0 0l0 200.0l-400.0 0l0 -200.0z" clip-rule="nonzero"></path></clipPath><g clip-path="url(#p.0)"><path fill="#000000" fill-opacity="0.0" d="m0 0l400.0 0l0 200.0l-400.0 0z" fill-rule="nonzero"></path><path fill="#ffff00" d="m141.78651 109.57762l0 0c0 -27.34462 23.788834 -49.51181 53.133865 -49.51181l0 0c29.345016 0 53.13385 22.16719 53.13385 49.51181l0 0c0 27.34462 -23.788834 49.51181 -53.13385 49.51181l0 0c-29.345032 0 -53.133865 -22.16719 -53.133865 -49.51181z" fill-rule="nonzero"></path><path fill="#000000" fill-opacity="0.0" d="m196.03136 118.20461l155.43306 -0.97637177" fill-rule="nonzero"></path><path stroke="#ffff00" stroke-width="12.0" stroke-linejoin="round" stroke-linecap="butt" d="m196.03136 118.20461l155.43306 -0.97637177" fill-rule="nonzero"></path><path fill="#000000" fill-opacity="0.0" d="m204.6833 97.37604l138.11024 -38.960625" fill-rule="nonzero"></path><path stroke="#ffff00" stroke-width="12.0" stroke-linejoin="round" stroke-linecap="butt" d="m204.6833 97.37604l138.11024 -38.960625" fill-rule="nonzero"></path><path fill="#000000" fill-opacity="0.0" d="m204.6833 79.368416l100.000015 -70.96063" fill-rule="nonzero"></path><path stroke="#ffff00" stroke-width="12.0" stroke-linejoin="round" stroke-linecap="butt" d="m204.6833 79.368416l100.000015 -70.96063" fill-rule="nonzero"></path><path fill="#000000" fill-opacity="0.0" d="m186.63626 79.368416l0.75590515 -98.04725" fill-rule="nonzero"></path><path stroke="#ffff00" stroke-width="12.0" stroke-linejoin="round" stroke-linecap="butt" d="m186.63626 79.368416l0.75590515 -98.04725" fill-rule="nonzero"></path><path fill="#000000" fill-opacity="0.0" d="m189.0397 142.44615l-1.6377869 96.34645" fill-rule="nonzero"></path><path stroke="#ffff00" stroke-width="12.0" stroke-linejoin="round" stroke-linecap="butt" d="m189.0397 142.44615l-1.6377869 96.34645" fill-rule="nonzero"></path><path fill="#000000" fill-opacity="0.0" d="m168.37483 132.59325l-48.15748 76.7874" fill-rule="nonzero"></path><path stroke="#ffff00" stroke-width="12.0" stroke-linejoin="round" stroke-linecap="butt" d="m168.37483 132.59325l-48.15748 76.7874" fill-rule="nonzero"></path><path fill="#000000" fill-opacity="0.0" d="m156.0763 119.18996l-114.04724 44.12599" fill-rule="nonzero"></path><path stroke="#ffff00" stroke-width="12.0" stroke-linejoin="round" stroke-linecap="butt" d="m156.0763 119.18996l-114.04724 44.12599" fill-rule="nonzero"></path><path fill="#000000" fill-opacity="0.0" d="m169.50893 83.39439l-67.49607 -72.47244" fill-rule="nonzero"></path><path stroke="#ffff00" stroke-width="12.0" stroke-linejoin="round" stroke-linecap="butt" d="m169.50893 83.39439l-67.49607 -72.47244" fill-rule="nonzero"></path><path fill="#000000" fill-opacity="0.0" d="m151.09332 101.402016l-105.07086 -13.574806" fill-rule="nonzero"></path><path stroke="#ffff00" stroke-width="12.0" stroke-linejoin="round" stroke-linecap="butt" d="m151.09332 101.402016l-105.07086 -13.574806" fill-rule="nonzero"></path><path fill="#000000" fill-opacity="0.0" d="m209.72504 150.42984l43.590546 77.574814" fill-rule="nonzero"></path><path stroke="#ffff00" stroke-width="12.0" stroke-linejoin="round" stroke-linecap="butt" d="m209.72504 150.42984l43.590546 77.574814" fill-rule="nonzero"></path><path fill="#000000" fill-opacity="0.0" d="m234.27916 132.42221l81.44881 58.33072" fill-rule="nonzero"></path><path stroke="#ffff00" stroke-width="12.0" stroke-linejoin="round" stroke-linecap="butt" d="m234.27916 132.42221l81.44881 58.33072" fill-rule="nonzero"></path></g></svg>

